<svg width="173" height="48" viewBox="0 0 173 48" fill="none" xmlns="http://www.w3.org/2000/svg">
<rect x="0.0131836" y="0.0186157" width="53.3437" height="47.9625" rx="7.7208" fill="#B3FF57"/>
<path d="M22.3806 20.54C22.5126 20.3107 23.3504 19.4901 23.576 19.2657C28.0915 14.7722 34.9317 7.35723 41.9846 8.05651C44.0745 8.2506 45.9958 9.2854 47.3083 10.9237C49.0769 13.0933 49.4442 15.5304 49.1706 18.2203C48.8711 21.4445 46.9535 25.0337 44.976 27.5477C40.0016 33.9248 32.196 37.8195 24.2409 38.8025C19.3746 39.4038 13.3915 38.64 9.20996 35.9261C15.2733 36.1183 18.6948 33.3562 23.3289 29.8893C23.7362 29.9587 24.0388 30.0064 24.4531 30.0413C28.1649 29.7687 29.4819 29.3187 32.8527 27.8034C36.05 25.9304 39.8987 22.6903 40.619 18.865C40.9182 17.2758 40.2473 16.317 38.6054 16.2214C33.5404 17.7494 27.5475 24.6295 23.3105 27.9723C22.4568 28.646 20.9409 29.9815 20.0158 30.4262C17.1242 32.8934 11.9504 35.1805 8.08195 34.2038C5.24435 33.4874 3.41073 30.1372 4.16302 27.3752C4.21273 26.611 4.70295 25.1488 5.05376 24.4701C5.89155 21.9208 9.34528 18.7555 11.6029 17.4287C15.8785 14.9157 20.633 13.5825 25.5098 14.705L27.4908 15.5585C27.434 15.6981 24.1279 18.8644 23.6707 19.3694C19.9232 19.4212 15.7441 19.5004 12.8855 21.955C11.5252 23.4277 10.5501 24.5734 10.592 26.7099C12.3864 31.1434 20.665 22.121 22.3806 20.54Z" fill="#104012"/>
<path d="M120.518 7.36817C124.001 7.3335 130.704 6.46298 131.873 10.7959C132.559 13.34 131.672 15.2687 129.562 16.6856C130.164 18.457 130.077 19.4559 132.138 19.4814L132.123 22.2481C130.373 22.8776 129.58 22.9142 127.746 22.5342C124.488 21.1196 125.788 18.5226 124.439 17.5664C123.831 17.5393 123.912 17.4549 123.437 17.6914C123.218 18.1101 123.312 21.6913 123.309 22.4678L118.165 22.46L118.177 7.39942L120.518 7.36817ZM123.41 11.0469L123.389 14.1133C124.601 14.1231 125.512 14.2698 126.569 13.6797C127.935 10.9734 125.196 11.0056 123.41 11.0469Z" fill="#FEFEFE"/>
<path d="M60.1798 7.33144L65.3875 7.33158L65.3783 12.8735L69.6193 12.8802L69.6219 7.34027L74.7376 7.33184L74.7363 22.3401C73.2361 22.4255 71.1221 22.3566 69.5758 22.3537L69.6035 16.6883L65.368 16.6871L65.3447 22.3593L60.1636 22.3525L60.1798 7.33144Z" fill="#FEFEFE"/>
<path d="M71.2629 26.4988L75.9755 26.5521C75.9913 31.1307 75.9821 35.7093 75.9452 40.2878L71.4868 40.2834L71.5039 38.8654L71.5263 33.0995C70.8045 34.5639 69.8549 36.1674 69.0462 37.6039L67.1008 37.6027C66.217 36.1472 65.3641 34.6727 64.5439 33.1801L64.5306 40.2886L60.1524 40.2829C60.1509 38.6771 60.0425 27.1316 60.2696 26.583L60.6944 26.5156C62.0165 26.4861 63.4266 26.5162 64.7558 26.522C65.8113 28.4123 66.9796 30.3357 68.0597 32.2355C69.1792 30.3526 70.2474 28.4397 71.2629 26.4988Z" fill="#FEFEFE"/>
<path d="M91.2913 7.32415C93.9031 7.32573 100.43 6.87434 102.563 8.22747C106.654 10.8233 105.676 16.5722 100.635 17.8398C99.4206 18.0929 97.6751 18.025 96.3909 18.0156L96.4006 22.3554C94.7081 22.3758 92.9835 22.3561 91.2883 22.3534L91.2913 7.32415ZM96.4094 10.912L96.4006 14.4921C97.5028 14.5328 98.3455 14.6595 99.345 14.1601C99.9284 13.3468 100.339 12.0876 99.3284 11.4052C98.3801 10.7642 97.4855 10.9109 96.4094 10.912Z" fill="#FEFEFE"/>
<path d="M139.602 26.5128C142.779 26.4812 148.893 25.6868 149.958 29.6388C150.584 31.9592 149.775 33.7186 147.851 35.0109C148.4 36.6266 148.32 37.5375 150.201 37.5607L150.186 40.0841C148.59 40.6584 147.867 40.6915 146.194 40.3449C143.222 39.0546 144.407 36.6856 143.177 35.8136C142.623 35.7888 142.696 35.7121 142.263 35.9279C142.063 36.3104 142.151 39.5762 142.148 40.2843L137.455 40.2775L137.466 26.5412L139.602 26.5128ZM142.239 29.8673L142.22 32.6642C143.325 32.6732 144.157 32.8071 145.121 32.2687C146.366 29.8005 143.868 29.8297 142.239 29.8673Z" fill="#FEFEFE"/>
<path d="M108.572 26.5264C108.841 27.6911 109.659 29.9272 110.064 31.1406C111.084 34.197 112.126 37.2463 113.19 40.2871L108.147 40.2891C107.942 39.5495 107.731 38.8109 107.515 38.0742L103.23 38.0615L102.624 40.2881C100.938 40.293 99.253 40.2866 97.5671 40.2686C99.2016 36.026 100.546 30.8409 102.244 26.7344C102.585 26.4614 102.647 26.542 103.145 26.5107C104.954 26.4984 106.764 26.5037 108.572 26.5264ZM105.375 30.3418C105.155 31.0551 103.994 34.5865 104.074 35.0557C104.593 35.1762 104.79 35.1547 105.306 35.1377C105.703 35.1407 106.328 35.2084 106.625 35.002C106.511 34.2345 105.726 30.9286 105.375 30.3418Z" fill="#FEFEFE"/>
<path d="M106.159 7.34243L116.763 7.33268C116.781 8.5409 116.742 9.78364 116.717 10.9949C114.978 10.9353 113.053 10.9826 111.301 10.9896L111.294 13.182C112.887 13.1664 114.479 13.1729 116.071 13.2012L116.052 16.5612C115.093 16.5661 111.926 16.3272 111.349 16.7811L111.302 17.3252L111.298 17.4517C111.289 17.8821 111.226 18.5019 111.494 18.7854C112.764 18.9297 115.462 18.8363 116.837 18.8264V22.3586L106.148 22.3496L106.159 7.34243Z" fill="#FEFEFE"/>
<path d="M110.957 26.5083C112.443 26.4453 114.259 26.5033 115.768 26.5117C116.513 28.8649 117.636 33.8375 118.358 35.6468C119.116 32.3784 119.854 29.7593 120.818 26.5389C122.465 26.5022 124.112 26.507 125.759 26.5532L124.572 30.1052C123.722 33.1722 122.193 37.0709 121.195 40.2853H115.346C113.765 35.884 112.296 31.1679 110.808 26.7063L110.957 26.5083Z" fill="#FEFEFE"/>
<path d="M75.1089 7.33434L80.4524 7.3317C81.2361 9.19232 82.2332 11.2498 83.0814 13.0976C83.815 11.1761 84.658 9.23724 85.4575 7.33816C87.2619 7.32446 89.0677 7.32643 90.8721 7.34382C89.8053 9.47175 88.7041 11.5827 87.5701 13.6757C85.248 17.8845 85.572 17.6583 85.6247 22.3658L80.3721 22.3598C80.4142 20.7287 80.4182 19.0608 80.4392 17.4263C78.6216 14.1992 76.7922 10.625 75.1089 7.33434Z" fill="#FEFEFE"/>
<path d="M77.6945 26.5024L87.7322 26.4988L87.7599 29.8728L82.5573 29.8567L82.5599 31.8575L87.0565 31.8982L87.0526 34.8781C86.1016 34.8885 83.0775 34.6186 82.5204 35.0898L82.4782 35.6378C82.4822 36.0615 82.4229 36.7171 82.6561 36.9769C83.9534 37.1394 86.3598 37.0742 87.7428 37.0759L87.7441 40.2841L77.6813 40.2824C77.6655 35.7706 77.5799 30.9914 77.6945 26.5024Z" fill="#FEFEFE"/>
<path d="M162.559 26.5125C165.926 26.4809 169.292 26.4937 172.657 26.5507L172.665 29.8734L167.389 29.8467L167.38 31.8964L171.884 31.8937L171.905 34.8597C170.757 34.8494 168.555 34.7731 167.5 34.9053C167.264 35.2573 167.343 35.3575 167.336 35.8352C167.33 36.2982 167.289 36.55 167.467 36.9789C167.941 37.1424 171.821 37.0748 172.649 37.0736L172.657 40.2788L162.506 40.2825C162.534 36.3017 162.327 30.3332 162.559 26.5125Z" fill="#FEFEFE"/>
<path d="M127.061 26.5133C130.075 26.4873 133.087 26.4893 136.101 26.519L136.074 29.8721L131.022 29.8469L131.017 31.8728L135.443 31.8829C135.464 32.8597 135.449 33.8888 135.447 34.8705L130.974 34.8583L130.988 37.0531L136.164 37.0664L136.165 40.2846L126.121 40.2797L126.137 31.8836C126.135 30.3606 126.076 28.2015 126.205 26.7325C126.47 26.459 126.588 26.5423 127.061 26.5133Z" fill="#FEFEFE"/>
<path d="M156.276 26.2408C158.158 26.1794 159.341 26.5633 161.056 27.1672C160.762 28.3299 160.421 29.4422 160.073 30.5894C159.066 30.0964 156.181 28.9165 155.498 30.4139C155.986 32.3022 161.529 31.6126 161.541 35.5866C161.554 39.5985 158.93 40.4027 155.502 40.5521C153.558 40.5356 152.412 40.3158 150.697 39.4355C151.012 38.2996 151.35 37.1701 151.71 36.0477C152.7 36.76 156.274 38.221 156.716 36.4123C156.202 34.9688 153.23 35.0306 152.034 33.8515C149.518 31.3708 150.7 27.4495 154.09 26.5778C154.935 26.3606 155.424 26.3063 156.276 26.2408Z" fill="#FEFEFE"/>
<path d="M88.1377 26.0407C91.6425 25.9629 95.6031 26.0119 99.1158 26.0608L99.1184 29.4217L95.8717 29.4003C95.9086 31.8624 95.8862 34.3806 95.8902 36.8473C95.8981 37.81 95.8652 38.8454 95.8507 39.8139L91.1973 39.8122L91.2078 29.4738L88.0165 29.4423C88.0138 28.7435 87.9374 26.5634 88.1377 26.0407Z" fill="#FEFEFE"/>
</svg>
