<svg id="Megaphone" enable-background="new 0 0 64 64" height="512" viewBox="0 0 64 64" width="512" xmlns="http://www.w3.org/2000/svg"><g><g><circle cx="27.224" cy="45.26" fill="#404049" r="6.784"/><path d="m31.83772 61.30101-2.70738.9854c-1.05405.38364-2.2351.03684-2.91438-.85578l-14.18142-18.63516 11.90804-4.33417 9.32581 19.31925c.65921 1.36563-.00571 3.00181-1.43067 3.52046z" fill="#dedeea"/><path d="m28.8647 48.66512c-3.98713.77642-6.4423 3.98701-7.32362 6.6311l-3.18971-4.19693-6.3164-8.30984 11.89826-4.32283 4.80557 9.9257z" opacity=".1"/></g><g><path d="m36.39668 5.7983c-6.42032 8.07124-15.98048 14.5236-24.00489 18.23573l4.24571 11.66497 4.2457 11.66497c8.53316-2.31434 20.00416-3.51669 30.11051-1.46067-1.8241-8.00805-3.54744-14.24104-5.85399-20.57826-2.30657-6.33722-4.99291-12.2197-8.74304-19.52674z" fill="#f0f0fc"/><path d="m16.66267 48.90012 4.22052-1.53614-8.4914-23.32994-4.22052 1.53614c-6.44238 2.34484-9.7641 9.46828-7.41926 15.91066l.00001.00002c2.34483 6.44237 9.46828 9.76409 15.91065 7.41926z" fill="#f7524b"/><path d="m51.00796 45.89702c-10.11413-2.05648-21.59225-.8394-30.1116 1.46888l-4.21761 1.53176c-1.406.50359-2.83287.75538-4.25974.75538-5.057 0-9.82033-3.12654-11.6669-8.16267-1.55277-4.32262-.5876-8.93892 2.18225-12.23337 3.00065 5.66548 8.64525 9.02294 15.17126 10.44981 9.84133 2.16138 21.73902-.1259 29.83868-5.7495 1.07019 3.65115 2.05636 7.53307 3.06366 11.93971z" opacity=".1"/><path d="m55.04134 47.7925c-1.64244.5978-3.4585-.24905-4.0563-1.89148l-14.59304-40.09406c-.5978-1.64243.24905-3.4585 1.89148-4.05629 1.64243-.5978 3.4585.24905 4.05629 1.89148l14.59304 40.09406c.59781 1.64243-.24903 3.45849-1.89147 4.05629z" fill="#f7524b"/></g><path d="m53.18253 14.95755c-.20901 0-.41803-.06148-.60041-.18853-.47541-.33197-.59221-.98566-.26025-1.46107l2.55533-3.66292c.33401-.47541.99181-.58812 1.46107-.26025.47541.33197.59221.98566.26025 1.46107l-2.55533 3.66292c-.20492.29202-.53074.44878-.86066.44878zm10.78075 15.3822c.15164-.55943-.18033-1.13525-.73975-1.28689l-4.31148-1.16394c-.54918-.14652-1.13525.18033-1.28484.73976-.15164.55943.18033 1.13525.73975 1.28689l4.31149 1.16394c.09016.02459.18238.03586.27254.03586.46311-.00001.88729-.30738 1.01229-.77562zm-7.69263-7.94879 4.21722-1.53484c.54508-.19775.82582-.80021.62705-1.34426-.19877-.54406-.79918-.82582-1.34426-.62705l-4.21722 1.53484c-.54508.19775-.82582.80021-.62705 1.34426.15574.42623.55738.69057.98566.69057.11885.00001.23975-.02048.3586-.06352z" fill="#404049"/></g></svg>