<svg width="333" height="70" viewBox="0 0 333 70" fill="none" xmlns="http://www.w3.org/2000/svg">
<path d="M283.234 28.8687L290.636 28.8796C289.218 36.0039 287.542 43.3051 286.276 50.4353L279.611 50.4595C280.087 48.2875 280.523 46.0635 280.976 43.8823C281.432 41.6993 281.911 39.5209 282.411 37.3477L275.868 44.3047L272.913 44.3102C271.914 42.1639 270.673 39.5124 269.485 37.5189C268.802 41.6131 267.686 46.3605 266.844 50.4966L260.224 50.4224C261.748 43.3955 263.43 35.9426 264.686 28.8754L272.228 28.8981C273.439 31.5513 274.69 34.1875 275.976 36.8061C278.43 34.1938 280.849 31.5475 283.234 28.8687Z" fill="#7E43FF"/>
<path d="M176.145 28.8569L183.431 28.9023C182.544 35.171 180.291 43.7066 179.15 50.4278L172.552 50.4171L174.025 43.409L175.183 37.5027C173.003 39.7225 170.88 41.9992 168.82 44.3299L166.032 44.3119C165.003 42.048 163.685 39.6834 162.506 37.4725L159.818 50.4448L153.237 50.4024C154.69 44.761 156.863 34.5646 157.717 28.8804L165.182 28.8794C166.204 31.3153 167.738 34.2952 168.905 36.7196C171.356 34.1235 173.811 31.5607 176.145 28.8569Z" fill="#FEFEFE"/>
<path d="M223.853 28.9498C225.782 28.6475 233.573 28.8439 235.818 28.8629C235.524 30.3171 235.065 31.9734 234.699 33.4296C231.669 33.3651 229.135 33.3214 225.849 33.4563C220.639 33.6696 215.733 41.1126 220.146 45.1149C221.813 46.6261 225.094 46.0053 227.267 45.5859C227.416 44.4106 227.812 42.7764 228.066 41.5824L223.402 41.5492C223.906 40.2747 224.212 39.1246 224.576 37.8134L230.301 37.8216L235.021 37.8311C234.487 41.4797 233.254 46.6827 232.492 50.4098C230.68 50.3602 228.525 50.5377 226.654 50.5636C226.539 50.4148 226.175 49.9814 225.971 50.036C214.019 53.229 207.396 45.0765 214.323 34.4135C216.421 31.1816 219.789 29.6078 223.853 28.9498Z" fill="#7E43FF"/>
<path d="M141.854 28.9353C144.418 28.63 151.088 28.8501 153.886 28.8885L152.444 33.5285C149.476 33.441 147.134 33.3969 143.873 33.5377C138.545 33.7675 133.635 41.2566 138.351 45.2125C139.978 46.5765 143.14 45.9958 145.24 45.6115L146.132 41.6077L141.543 41.5704C142.021 40.4249 142.452 38.9463 142.841 37.7428L147.478 37.7224L153.116 37.8188C152.229 42.0068 151.37 46.1999 150.533 50.3985C148.614 50.3657 146.73 50.5713 144.822 50.4653L144.433 49.8328C143.19 49.8807 141.832 50.4606 140.628 50.5917C129.818 51.7705 126.706 42.6988 132.269 34.5473C134.686 31.0054 137.952 29.5751 141.854 28.9353Z" fill="#FEFEFE"/>
<path d="M254.461 28.877L259.292 50.4473L252.187 50.4619C252.049 49.1919 251.692 47.5747 251.448 46.292L246.249 46.29L242.713 46.2441L240.187 50.46L233.402 50.4395C237.81 43.1984 242.302 36.008 246.877 28.8711L254.461 28.877ZM249.182 35.2666C248.629 36.1706 245.512 41.0803 245.404 41.7041C245.9 41.8277 245.997 41.8815 246.518 41.8604L250.671 41.8496C250.469 40.6517 249.814 35.8676 249.182 35.2666Z" fill="#7E43FF"/>
<path d="M193.587 28.8787L201.094 28.854C202.001 34.9759 204.639 43.7435 205.898 50.4177C203.558 50.4094 201.218 50.4264 198.879 50.469C198.757 49.117 198.415 47.5815 198.154 46.2325L192.829 46.2243L189.406 46.2654C188.464 47.7478 187.791 48.8436 186.979 50.4224C184.689 50.3683 182.329 50.3768 180.032 50.3556C181.173 48.2956 183.329 45.1122 184.622 43.0709L193.587 28.8787Z" fill="#FEFEFE"/>
<path d="M195.854 35.2715C196.455 35.8813 197.172 40.7013 197.382 41.8492L193.198 41.8764L192.306 41.7749C192.119 40.7698 195.119 36.4533 195.854 35.2715Z" fill="#170C23"/>
<path d="M293.768 28.8828L312.044 28.8858C311.765 30.331 311.341 31.9462 311 33.3937L299.541 33.393C299.344 34.6707 298.983 36.2244 298.721 37.5141L308.999 37.5557C308.6 38.7859 308.284 40.3674 307.992 41.6507C304.606 41.642 301.223 41.6691 297.836 41.7324L296.954 46.0858L308.53 46.106C308.144 47.5151 307.808 49.0439 307.464 50.4726L289.28 50.4335C290.852 44.3381 292.582 35.1704 293.768 28.8828Z" fill="#7E43FF"/>
<path d="M107.368 28.9381C111.4 28.7644 115.762 28.8713 119.819 28.8957C119.194 30.4043 118.548 31.9043 117.883 33.3957C114.946 33.3855 111.745 33.3077 108.801 33.448C107.86 33.4929 107.049 34.1653 106.63 35.0151C107.52 38.0143 117.49 36.9105 117.786 42.0168C118.111 47.6332 113.67 49.7741 108.885 50.5299C104.613 50.5733 100.341 50.5222 96.0723 50.3767C96.9747 48.8155 97.712 47.6218 98.3578 45.9201C100.799 45.9308 110.771 46.9556 110.703 43.7429C109.277 42.1204 104.035 42.017 101.782 40.429C98.0671 37.8114 99.646 32.8317 102.794 30.6084C104.27 29.5659 105.659 29.2172 107.368 28.9381Z" fill="#FEFEFE"/>
<path d="M320.076 28.9296C323.246 28.646 329.241 28.8648 332.559 28.889C331.974 30.3556 331.211 31.9285 330.549 33.3754C327.546 33.3555 324.506 33.282 321.512 33.3834C320.348 33.4228 319.087 34.228 319.294 35.532C321.756 38.1804 335.537 37.2354 328.598 47.444C327.21 49.4874 323.42 50.2266 321.14 50.4917C317.067 50.5189 312.993 50.498 308.919 50.4285C309.714 48.8835 310.344 47.5148 311.047 45.936C313.17 45.9821 323.629 46.9907 323.119 43.7436C321.626 42.0813 316.835 41.9412 314.719 40.5438C312.474 39.283 311.463 37.2454 312.395 34.7614C313.865 30.8511 316.182 29.7042 320.076 28.9296Z" fill="#7E43FF"/>
<path d="M122.788 29.0186L129.642 29.0407C128.05 36.2084 126.534 43.3929 125.096 50.5929C122.957 50.5172 120.574 50.5521 118.414 50.5361C119.941 44.6934 121.665 35.1085 122.788 29.0186Z" fill="#FEFEFE"/>
<path d="M81.8935 6.82149C81.9051 6.92267 81.9036 7.02641 81.8841 7.13051L80.1372 16.3656C80.049 16.8309 79.6568 17.1772 79.1844 17.2072L65.534 18.0693C65.5322 18.0694 65.5306 18.0695 65.5288 18.0696L51.8742 18.8628C51.1077 19.0214 51.3246 19.5162 50.825 18.1366L48.0185 9.13142C47.9861 9.02757 47.9724 8.92181 47.9729 8.8173C47.0765 8.59108 46.3882 7.80446 46.3318 6.83362C46.2622 5.63576 47.1801 4.60472 48.3779 4.53514C49.5758 4.46555 50.6068 5.38338 50.6764 6.58124C50.7156 7.25582 50.4416 7.87733 49.9808 8.30418L52.9967 11.0094C53.759 11.6932 54.7824 12.0511 55.8047 11.9917C57.0135 11.9215 58.1326 11.2805 58.8025 10.2766L63.1246 3.80027C62.7084 3.43004 62.4332 2.90105 62.3985 2.30219C62.3289 1.10433 63.2467 0.0732945 64.4446 0.00370943C65.6424 -0.0658757 66.6734 0.851946 66.743 2.04981C66.7768 2.63074 66.5768 3.17142 66.2267 3.58326C66.228 3.58484 66.2296 3.58613 66.2309 3.58785L71.2409 9.53925C72.0228 10.4681 73.2131 10.9806 74.4253 10.9102C75.457 10.8502 76.4038 10.3921 77.0909 9.62012L79.7915 6.58642C79.2741 6.21653 78.9214 5.62562 78.8817 4.94276C78.8121 3.7449 79.7299 2.71387 80.9278 2.64428C82.1257 2.5747 83.1567 3.49252 83.2263 4.69038C83.2812 5.6353 82.7203 6.47427 81.8935 6.82149Z" fill="#7E43FF"/>
<path d="M94.7874 13.6265C88.6291 13.393 85.2874 13.2154 78.0461 13.6265C69.7783 14.4601 52.8837 15.362 44.332 18.6507C38.2439 20.9919 32.893 24.2438 28.2278 28.8936C24.0347 33.0728 25.1911 36.6456 30.5655 38.8121C34.3374 40.3325 39.2744 40.5048 43.3771 40.9992L57.7761 42.7661C59.2378 42.9545 64.5135 43.241 65.0753 44.5642C64.7333 45.6252 61.1853 47.9964 60.0785 48.5546C55.5702 50.828 32.5265 52.1009 26.2475 52.3408C21.939 55.9293 16.4849 60.1076 11.933 63.4885C13.2889 61.9785 22.5468 52.7905 22.9166 51.9579L22.8224 51.7518C21.8405 51.6295 19.5483 53.895 18.6446 54.6235L10.5984 61.073C7.34067 63.6868 3.08318 66.914 0 69.6506C3.58016 69.2293 9.8248 68.6279 13.2035 67.9378C16.6195 67.5267 20.0183 66.917 23.4114 66.3494C38.0876 63.8945 72.8578 57.1837 82.1559 45.4457C83.1689 44.1667 83.9106 42.5171 83.6934 40.8518C83.525 39.5579 82.7717 38.5104 81.7497 37.7357C80.6621 36.9118 79.3509 36.461 78.0461 36.1102C74.9326 35.273 71.607 34.9231 68.4138 34.4737L51.9052 32.28C49.6694 31.9806 46.786 31.7091 44.6381 31.0674C44.1724 30.9283 44.0926 30.7457 43.8837 30.3944C43.7184 29.0552 45.4402 28.1621 46.3743 27.5427C48.9417 25.8407 51.8486 25.6279 54.813 25.2908C64.9467 24.1972 75.1267 23.9526 85.2874 23.4231C88.8239 20.3281 91.2316 16.5376 94.7874 13.6265Z" fill="#7E43FF"/>
<path d="M83.3378 36.6655C84.6259 36.8187 86.0168 37.5947 87.0542 38.3446C88.5596 39.4329 89.6085 40.7087 89.8939 42.5731C90.187 44.4844 89.4736 46.2794 88.3397 47.7905C79.5738 59.4685 48.7741 65.1097 34.6388 67.2025C33.9737 67.3791 32.5036 67.495 31.8174 67.5273C33.8998 66.82 36.354 66.5554 38.5161 66.0935C42.0073 65.3478 45.4424 64.4584 48.888 63.5248C58.8771 60.818 80.493 54.3084 85.6942 45.0913C86.5272 43.6145 87.0324 41.8141 86.5529 40.1375C86.0669 38.4369 84.8161 37.4822 83.3378 36.6655Z" fill="#7E43FF"/>
</svg>
