<svg id="svg4593" height="512" viewBox="0 0 16.933333 16.933334" width="512" xmlns="http://www.w3.org/2000/svg" xmlns:svg="http://www.w3.org/2000/svg"><clipPath id="clipPath5337"><path id="rect5339" d="m34.774 274.321h35.435v25.702h-35.435z"/></clipPath><clipPath id="clipPath4542"><path id="rect4544" d="m-535.214-48.848h501.574v185.586h-501.574z"/></clipPath><clipPath id="clipPath11017"><path id="rect11019" d="m36.669 153.503h29.654v28.999h-29.654z" transform="rotate(-90)" vector-effect="none"/></clipPath><clipPath id="clipPath11444"><path id="rect11446" d="m-143.933 265.779h28.84v29.104h-28.84z" transform="rotate(-90)" vector-effect="none"/></clipPath><clipPath id="clipPath11781"><rect id="rect11783" height="32.411" rx=".634" transform="rotate(-90)" width="32.941" x="-145.124" y="181.377"/></clipPath><clipPath id="clipPath11499"><path id="rect11501" d="m-551.399-9.261h16.064v16.347h-16.064z" vector-effect="none"/></clipPath><clipPath id="clipPath3126"><rect id="rect3128" height="7.89" rx="1.058" width="7.938" x="-275.966" y="12.991"/></clipPath><g id="layer1" transform="translate(0 -280.067)"><g id="g20571" transform="translate(-.419)"><g id="g21530" transform="translate(0 -.181)"><g id="g4484"><path id="path6277" d="m14.972202 280.77669a1.4967093 1.4967093 0 0 0 -1.497066 1.49655 1.4967093 1.4967093 0 0 0 .127641.59996c-1.368504 1.13923-2.563793 2.12997-3.8250894 3.15846-.3195701.23717.044789.61333.2454634.47026 1.230636-.9994 2.695387-2.20407 3.881416-3.18017a1.4967093 1.4967093 0 0 0 1.067635.44804 1.4967093 1.4967093 0 0 0 1.49655-1.49655 1.4967093 1.4967093 0 0 0 -1.49655-1.49655z" fill="#55a1ff" vector-effect="none"/><path id="path6275" d="m3.7765035 284.80228c-.26391-.007-.3793786.40384-.1286743.50126 1.2949518.50805 2.577792 1.01691 3.7455078 1.47743a1.4967093 1.4967093 0 0 0 -.00465.0992 1.4967093 1.4967093 0 0 0 1.4965495 1.49655 1.4967093 1.4967093 0 0 0 1.4965495-1.49655 1.4967093 1.4967093 0 0 0 -1.4965495-1.49655 1.4967093 1.4967093 0 0 0 -1.3647745.88522c-1.1734255-.45533-2.493101-.98262-3.6225178-1.43609-.04313-.0201-.083738-.0295-.1214398-.0305z" fill="#ef6356" vector-effect="none"/><path id="rect6265" d="m1.7414855 288.14212h2.1396008c.4397375 0 .79375.35401.79375.79375v6.92206c0 .43974-.3540125.79375-.79375.79375h-2.1396008c-.4397375 0-.79375001-.35401-.79375001-.79375v-6.92206c0-.43974.35401251-.79375.79375001-.79375z" fill="#ffc861" vector-effect="none"/><path id="path6268" d="m7.8154351 290.44135h2.1396008c.4397371 0 .7937501.35401.7937501.79375v4.62283c0 .43974-.354013.79375-.7937501.79375h-2.1396008c-.4397375 0-.79375-.35401-.79375-.79375v-4.62283c0-.43974.3540125-.79375.79375-.79375z" fill="#ef6356" vector-effect="none"/><path id="path6270" d="m13.90225 285.23055h2.1396c.439738 0 .79375.35401.79375.79375v9.83363c0 .43974-.354012.79375-.79375.79375h-2.1396c-.439738 0-.79375-.35401-.79375-.79375v-9.83363c0-.43974.354012-.79375.79375-.79375z" fill="#55a1ff" vector-effect="none"/><path id="path6272" d="m4.3079952 284.6605a1.4967093 1.4967093 0 0 1 -1.4967093 1.49671 1.4967093 1.4967093 0 0 1 -1.4967093-1.49671 1.4967093 1.4967093 0 0 1 1.4967093-1.49671 1.4967093 1.4967093 0 0 1 1.4967093 1.49671z" fill="#ffc861" vector-effect="none"/><g transform="matrix(.265 0 0 .265 .419 280.248)"><path id="path6468" d="m47.962891 58.748047v.251953c0 1.662009 1.337998 3 3 3h6.763671a2.000485 2.000485 0 0 0 -1.603515-3.251953z" fill="#488bff" font-variant-ligatures="normal" font-variant-position="normal" font-variant-caps="normal" font-variant-numeric="normal" font-variant-alternates="normal" font-feature-settings="normal" text-indent="0" text-align="start" text-decoration-line="none" text-decoration-style="solid" text-decoration-color="#000000" text-transform="none" text-orientation="mixed" white-space="normal" shape-padding="0" isolation="auto" mix-blend-mode="normal" solid-color="#000000" solid-opacity="1" vector-effect="none"/><path id="path6459" d="m24.957031 58.748047v.251953c0 .831005.334703 1.580798.876953 2.123047s1.292047.876953 2.123047.876953h8.085938c.830999 0 1.580796-.334704 2.123047-.876953.54225-.542249.876953-1.292042.876953-2.123047v-.251953z" fill="#d85750" font-variant-ligatures="normal" font-variant-position="normal" font-variant-caps="normal" font-variant-numeric="normal" font-variant-alternates="normal" font-feature-settings="normal" text-indent="0" text-align="start" text-decoration-line="none" text-decoration-style="solid" text-decoration-color="#000000" text-transform="none" text-orientation="mixed" white-space="normal" shape-padding="0" isolation="auto" mix-blend-mode="normal" solid-color="#000000" solid-opacity="1" vector-effect="none"/><path id="path6452" d="m8.3183594 62h4.7675786c.830999 0 1.580796-.334704 2.123046-.876953s.876954-1.292042.876954-2.123047v-.251953h-6.210938a2.000485 2.000485 0 0 0 -1.5566406 3.251953z" fill="#ffab61" font-variant-ligatures="normal" font-variant-position="normal" font-variant-caps="normal" font-variant-numeric="normal" font-variant-alternates="normal" font-feature-settings="normal" text-indent="0" text-align="start" text-decoration-line="none" text-decoration-style="solid" text-decoration-color="#000000" text-transform="none" text-orientation="mixed" white-space="normal" shape-padding="0" isolation="auto" mix-blend-mode="normal" solid-color="#000000" solid-opacity="1" vector-effect="none"/></g></g></g></g></g></svg>