<svg width="230" height="49" viewBox="0 0 230 49" fill="none" xmlns="http://www.w3.org/2000/svg">
<path d="M195.178 19.8935L200.279 19.901C199.302 24.8104 198.147 29.8417 197.275 34.7552L192.682 34.7719C193.01 33.2751 193.31 31.7425 193.623 30.2395C193.937 28.7352 194.266 27.234 194.612 25.7364L190.103 30.5306L188.066 30.5343C187.378 29.0553 186.523 27.2282 185.704 25.8544C185.233 28.6758 184.464 31.9472 183.884 34.7975L179.322 34.7463C180.373 29.9041 181.532 24.7682 182.397 19.8981L187.594 19.9137C188.429 21.7421 189.291 23.5588 190.177 25.3632C191.868 23.563 193.535 21.7395 195.178 19.8935Z" fill="#7E43FF"/>
<path d="M121.383 19.8856L126.404 19.9169C125.792 24.2367 124.24 30.1186 123.454 34.7503L118.907 34.7429L119.922 29.9136L120.72 25.8435C119.218 27.3732 117.755 28.942 116.335 30.5481L114.414 30.5358C113.705 28.9757 112.796 27.3462 111.984 25.8227L110.132 34.762L105.597 34.7328C106.598 30.8452 108.095 23.8188 108.684 19.9018L113.828 19.9011C114.532 21.5797 115.59 23.6332 116.394 25.3039C118.083 23.5148 119.774 21.7488 121.383 19.8856Z" fill="#FEFEFE"/>
<path d="M154.26 19.9494C155.589 19.7411 160.958 19.8764 162.505 19.8895C162.302 20.8916 161.986 22.033 161.734 23.0364C159.646 22.992 157.9 22.9619 155.635 23.0548C152.045 23.2018 148.664 28.3308 151.705 31.0888C152.853 32.1303 155.115 31.7025 156.612 31.4134C156.715 30.6035 156.988 29.4774 157.163 28.6546L153.949 28.6317C154.296 27.7535 154.507 26.9609 154.758 26.0573L158.703 26.063L161.955 26.0695C161.588 28.5838 160.738 32.1693 160.212 34.7376C158.964 34.7035 157.479 34.8257 156.19 34.8436C156.111 34.7411 155.86 34.4424 155.719 34.48C147.483 36.6804 142.919 31.0624 147.692 23.7145C149.138 21.4873 151.459 20.4028 154.26 19.9494Z" fill="#7E43FF"/>
<path d="M97.7535 19.9397C99.5203 19.7293 104.117 19.8809 106.045 19.9074L105.051 23.1049C103.006 23.0446 101.392 23.0142 99.1442 23.1112C95.4733 23.2696 92.0897 28.4304 95.3394 31.1564C96.4606 32.0963 98.6395 31.6962 100.087 31.4314L100.702 28.6723L97.5389 28.6466C97.8685 27.8573 98.1656 26.8383 98.4334 26.009L101.629 25.9949L105.514 26.0614C104.903 28.9473 104.311 31.8368 103.734 34.7301C102.412 34.7075 101.114 34.8492 99.7984 34.7762L99.5306 34.3403C98.6738 34.3733 97.738 34.7729 96.9087 34.8633C89.4591 35.6756 87.3149 29.4242 91.1482 23.8069C92.8139 21.3662 95.0643 20.3805 97.7535 19.9397Z" fill="#FEFEFE"/>
<path d="M175.352 19.8987L178.681 34.7639L173.784 34.7737C173.689 33.8985 173.444 32.7836 173.276 31.8997L169.693 31.8987L167.256 31.8675L165.515 34.7718L160.839 34.7581C163.877 29.7682 166.973 24.8139 170.125 19.8958L175.352 19.8987ZM171.713 24.302C171.332 24.925 169.186 28.3083 169.111 28.7386C169.452 28.8237 169.52 28.8606 169.878 28.846L172.741 28.8391C172.602 28.0136 172.149 24.7156 171.713 24.302Z" fill="#7E43FF"/>
<path d="M133.402 19.9004L138.576 19.8834C139.201 24.102 141.019 30.1438 141.886 34.743C140.274 34.7374 138.662 34.7491 137.049 34.7784C136.965 33.8467 136.73 32.7886 136.55 31.859L132.88 31.8533L130.521 31.8817C129.872 32.9032 129.409 33.6583 128.849 34.7463C127.271 34.709 125.645 34.7149 124.062 34.7003C124.848 33.2807 126.334 31.087 127.225 29.6803L133.402 19.9004Z" fill="#FEFEFE"/>
<path d="M134.965 24.3058C135.379 24.726 135.873 28.0475 136.017 28.8385L133.135 28.8572L132.52 28.7873C132.391 28.0947 134.458 25.1201 134.965 24.3058Z" fill="#170C23"/>
<path d="M202.438 19.9035L215.032 19.9055C214.839 20.9015 214.547 22.0145 214.312 23.012L206.416 23.0115C206.28 23.892 206.031 24.9626 205.851 25.8514L212.933 25.88C212.659 26.7278 212.441 27.8176 212.24 28.7019C209.906 28.6959 207.575 28.7146 205.241 28.7582L204.634 31.7582L212.611 31.7721C212.345 32.7431 212.113 33.7966 211.876 34.7812L199.345 34.7542C200.429 30.5538 201.62 24.2363 202.438 19.9035Z" fill="#7E43FF"/>
<path d="M73.9887 19.9415C76.7673 19.8218 79.7731 19.8955 82.5689 19.9123C82.1377 20.9518 81.6929 21.9855 81.2342 23.0132C79.2106 23.0062 77.0046 22.9526 74.976 23.0493C74.3273 23.0802 73.7689 23.5436 73.4803 24.1292C74.0935 26.1959 80.9635 25.4353 81.1674 28.9541C81.3919 32.8244 78.3315 34.2997 75.0337 34.8206C72.0902 34.8505 69.1465 34.8153 66.2046 34.715C66.8265 33.6392 67.3345 32.8166 67.7796 31.6439C69.4621 31.6513 76.3333 32.3575 76.2866 30.1436C75.3039 29.0255 71.6921 28.9543 70.1391 27.8599C67.5792 26.0561 68.6673 22.6246 70.8363 21.0925C71.8535 20.3741 72.811 20.1338 73.9887 19.9415Z" fill="#FEFEFE"/>
<path d="M220.567 19.9357C222.751 19.7402 226.882 19.891 229.169 19.9077C228.766 20.9184 228.24 22.0022 227.784 22.9994C225.715 22.9856 223.62 22.935 221.556 23.0049C220.754 23.032 219.885 23.5869 220.028 24.4854C221.724 26.3105 231.221 25.6593 226.439 32.6941C225.483 34.1022 222.871 34.6116 221.3 34.7943C218.493 34.813 215.686 34.7986 212.878 34.7507C213.426 33.6861 213.861 32.7429 214.345 31.6549C215.808 31.6867 223.016 32.3817 222.664 30.1441C221.635 28.9986 218.333 28.9021 216.876 27.9391C215.329 27.0703 214.631 25.6661 215.274 23.9544C216.287 21.2598 217.883 20.4694 220.567 19.9357Z" fill="#7E43FF"/>
<path d="M84.6149 19.997L89.3375 20.0123C88.2405 24.9516 87.1964 29.9025 86.2054 34.8641C84.731 34.8119 83.089 34.8359 81.6006 34.825C82.6529 30.7987 83.8406 24.1937 84.6149 19.997Z" fill="#FEFEFE"/>
<path d="M56.4342 4.70074C56.4421 4.77047 56.4411 4.84195 56.4277 4.91369L55.2238 11.2777C55.1631 11.5983 54.8928 11.837 54.5673 11.8576L45.1607 12.4517C45.1595 12.4518 45.1583 12.4519 45.1571 12.4519L35.7476 12.9985C35.2194 13.1078 35.3689 13.4488 35.0246 12.4981L33.0906 6.29253C33.0683 6.22097 33.0588 6.14809 33.0592 6.07607C32.4415 5.92018 31.9672 5.37811 31.9283 4.7091C31.8804 3.88364 32.5129 3.17315 33.3383 3.1252C34.1638 3.07725 34.8743 3.70973 34.9222 4.53518C34.9492 5.00004 34.7604 5.42833 34.4428 5.72247L36.5212 7.58666C37.0465 8.05786 37.7517 8.30451 38.4562 8.26359C39.2891 8.2152 40.0603 7.77349 40.522 7.0817L43.5003 2.6188C43.2135 2.36367 43.0239 1.99914 43 1.58646C42.952 0.761 43.5845 0.0505078 44.4099 0.0025562C45.2354 -0.0453955 45.9459 0.587083 45.9938 1.41254C46.0171 1.81286 45.8793 2.18545 45.638 2.46925C45.6389 2.47034 45.64 2.47123 45.641 2.47242L49.0934 6.57357C49.6322 7.21364 50.4524 7.56681 51.2878 7.51828C51.9987 7.47698 52.6511 7.16128 53.1246 6.6293L54.9856 4.53875C54.6291 4.28386 54.386 3.87666 54.3587 3.4061C54.3107 2.58064 54.9432 1.87015 55.7687 1.8222C56.5941 1.77425 57.3046 2.40672 57.3526 3.23218C57.3904 3.88333 57.0039 4.46147 56.4342 4.70074Z" fill="#7E43FF"/>
<path d="M65.3187 9.39021C61.075 9.22935 58.7722 9.10691 53.7822 9.39025C48.0847 9.96466 36.4426 10.5862 30.5495 12.8524C26.3542 14.4658 22.6668 16.7067 19.452 19.9109C16.5625 22.7908 17.3594 25.2529 21.0629 26.7458C23.6621 27.7935 27.0643 27.9122 29.8915 28.2529L39.814 29.4706C40.8212 29.6004 44.4568 29.7978 44.8439 30.7097C44.6082 31.4408 42.1633 33.0748 41.4005 33.4594C38.2938 35.0261 22.4142 35.9032 18.0873 36.0685C15.1183 38.5414 11.3599 41.4207 8.22315 43.7505C9.15746 42.7099 15.5371 36.3784 15.792 35.8047L15.7271 35.6626C15.0505 35.5784 13.4709 37.1395 12.8481 37.6416L7.30345 42.086C5.05851 43.8872 2.12464 46.111 0 47.9969C2.46711 47.7065 6.77034 47.2921 9.09864 46.8165C11.4526 46.5332 13.7947 46.1131 16.133 45.722C26.2464 44.0303 50.2069 39.4058 56.6143 31.3171C57.3123 30.4357 57.8234 29.2989 57.6737 28.1514C57.5577 27.2597 57.0386 26.5379 56.3343 26.0041C55.5849 25.4363 54.6813 25.1256 53.7822 24.8839C51.6366 24.307 49.3449 24.0659 47.1444 23.7562L35.7683 22.2445C34.2276 22.0382 32.2406 21.851 30.7604 21.4089C30.4396 21.313 30.3846 21.1872 30.2406 20.9451C30.1267 20.0223 31.3132 19.4068 31.9569 18.98C33.7261 17.8071 35.7293 17.6604 37.7721 17.4282C44.7553 16.6746 51.7704 16.506 58.7722 16.1411C61.2092 14.0083 62.8684 11.3963 65.3187 9.39021Z" fill="#7E43FF"/>
<path d="M57.4294 25.2662C58.317 25.3718 59.2755 25.9065 59.9904 26.4233C61.0277 27.1732 61.7506 28.0524 61.9473 29.3372C62.1492 30.6543 61.6576 31.8912 60.8763 32.9325C54.8356 40.98 33.6113 44.8673 23.8705 46.3095C23.4122 46.4312 22.3991 46.5111 21.9263 46.5333C23.3613 46.0459 25.0525 45.8635 26.5424 45.5453C28.9482 45.0314 31.3154 44.4185 33.6897 43.7752C40.5733 41.9099 55.469 37.4241 59.0532 31.0725C59.6272 30.0548 59.9753 28.8142 59.6449 27.6588C59.3101 26.4869 58.4481 25.829 57.4294 25.2662Z" fill="#7E43FF"/>
</svg>
